<svg width="32" height="32" viewBox="0 0 120 120" fill="none" xmlns="http://www.w3.org/2000/svg">
  <rect x="4" y="4" width="112" height="112" rx="26" fill="url(#g)"/>
  <rect x="4" y="4" width="112" height="56" rx="26" fill="#fff" fill-opacity=".08"/>
  <path d="M30 52c0-16 12-28 27-28s27 12 27 28v32c0 2-1.5 3-3 1.5l-4.5-4.5c-1.5-1.5-3.5-1.5-5 0l-3.5 3.5c-1.5 1.5-3.5 1.5-5 0l-3.5-3.5c-1.5-1.5-3.5-1.5-5 0l-3.5 3.5c-1.5 1.5-3.5 1.5-5 0l-3.5-3.5c-1.5-1.5-3.5-1.5-5 0L33 85.5c-1.5 1.5-3-.5-3-1.5V52z" fill="#fff" fill-opacity=".92"/>
  <path d="M42 54l10 8-10 8" stroke="#1a3a8a" stroke-width="4.5" stroke-linecap="round" stroke-linejoin="round" fill="none"/>
  <line x1="58" y1="70" x2="70" y2="70" stroke="#1a3a8a" stroke-width="4.5" stroke-linecap="round"/>
  <defs>
    <linearGradient id="g" x1="60" y1="4" x2="60" y2="116" gradientUnits="userSpaceOnUse">
      <stop stop-color="#2563eb"/><stop offset="1" stop-color="#1e3a8a"/>
    </linearGradient>
  </defs>
</svg>
